<svg xmlns="http://www.w3.org/2000/svg" width="1600" height="600" viewBox="0 0 1600 600" role="img" aria-label="IPerSense Workshop Series cover">
  <defs>
    <linearGradient id="bg" x1="0" y1="0" x2="1" y2="1">
      <stop offset="0" stop-color="#f2f4f7"/>
      <stop offset="1" stop-color="#e8eef6"/>
    </linearGradient>
  </defs>

  <rect width="1600" height="600" fill="url(#bg)" opacity="0.1"/>

  <!-- Flat, theme-neutral illustration: abstract sensors + road-like band -->
  <rect x="0" y="420" width="1600" height="80" fill="#dbe5f3" opacity="0.4"/>
  <rect x="0" y="500" width="1600" height="100" fill="#eef2f7" opacity="0.2"/>

  <g fill="none" stroke="#9fb5d6" stroke-width="10" opacity="0.9">
    <path d="M120 460 C260 380, 420 380, 560 460"/>
    <path d="M560 460 C700 540, 860 540, 1000 460"/>
    <path d="M1000 460 C1140 380, 1300 380, 1440 460"/>
  </g>

  <g>
    <circle cx="260" cy="210" r="64" fill="#cfe0f5"/>
    <circle cx="260" cy="210" r="38" fill="#b7d0f0"/>
    <circle cx="260" cy="210" r="16" fill="#9fb5d6"/>

    <circle cx="520" cy="160" r="54" fill="#cfe0f5"/>
    <circle cx="520" cy="160" r="30" fill="#b7d0f0"/>
    <circle cx="520" cy="160" r="12" fill="#9fb5d6"/>

    <circle cx="1260" cy="200" r="74" fill="#cfe0f5"/>
    <circle cx="1260" cy="200" r="42" fill="#b7d0f0"/>
    <circle cx="1260" cy="200" r="18" fill="#9fb5d6"/>

    <rect x="780" y="120" width="220" height="140" rx="18" fill="#dbe5f3"/>
    <rect x="810" y="150" width="160" height="18" rx="9" fill="#b7d0f0"/>
    <rect x="810" y="184" width="120" height="18" rx="9" fill="#b7d0f0"/>
    <rect x="810" y="218" width="140" height="18" rx="9" fill="#b7d0f0"/>
  </g>

  <g opacity="0.55" fill="#9fb5d6">
    <circle cx="110" cy="110" r="6"/>
    <circle cx="150" cy="90" r="6"/>
    <circle cx="190" cy="110" r="6"/>
    <circle cx="230" cy="90" r="6"/>

    <circle cx="1370" cy="120" r="6"/>
    <circle cx="1410" cy="90" r="6"/>
    <circle cx="1450" cy="120" r="6"/>
    <circle cx="1490" cy="90" r="6"/>
  </g>
</svg>
