<?xml version="1.0" encoding="UTF-8"?>
<svg id="Layer_1" data-name="Layer 1" xmlns="http://www.w3.org/2000/svg" viewBox="0 0 56.69 56.69">
  <path d="M2.13,37.57c-.56,0-1.11-.22-1.53-.65-.82-.85-.79-2.19.05-3.01L23.94,11.43c.85-.81,2.19-.79,3.01.05.82.85.79,2.19-.05,3.01L3.61,36.97c-.41.4-.95.6-1.48.6Z"/>
  <g>
    <path d="M10.68,46.12c-.54,0-1.09-.21-1.51-.62-.83-.83-.83-2.18,0-3.01l4.14-4.14c.83-.83,2.18-.83,3.01,0,.83.83.83,2.18,0,3.01l-4.14,4.14c-.42.42-.96.62-1.51.62Z"/>
    <path d="M19.46,37.33c-.54,0-1.09-.21-1.51-.62-.83-.83-.83-2.18,0-3.01l4.65-4.65c.83-.83,2.18-.83,3.01,0s.83,2.18,0,3.01l-4.65,4.65c-.42.42-.96.62-1.51.62Z"/>
    <path d="M28.75,28.04c-.54,0-1.09-.21-1.51-.62-.83-.83-.83-2.18,0-3.01l4.14-4.14c.83-.83,2.18-.83,3.01,0,.83.83.83,2.18,0,3.01l-4.14,4.14c-.42.42-.96.62-1.51.62Z"/>
  </g>
  <path d="M19.13,54.57c-.54,0-1.09-.21-1.51-.62-.83-.83-.83-2.18,0-3.01l22.88-22.88c.83-.83,2.18-.83,3.01,0,.83.83.83,2.18,0,3.01l-22.88,22.88c-.42.42-.96.62-1.51.62Z"/>
  <circle cx="51.56" cy="8.81" r="5.13"/>
  <path d="M51.56,15.01c-.55,0-1.09-.08-1.6-.22v30.16c0,.88.71,1.6,1.6,1.6s1.6-.72,1.6-1.6V14.79c-.51.14-1.04.22-1.6.22Z"/>
  <path d="M47.55,18.91c-.23,0-.46-.05-.69-.15-5.23-2.49-7.45-8.77-4.96-14,.38-.8,1.33-1.13,2.13-.75.8.38,1.13,1.33.75,2.13-1.73,3.64-.18,8,3.45,9.74.8.38,1.13,1.33.75,2.13-.27.57-.85.91-1.44.91Z"/>
  <path d="M44.27,23.11c-.23,0-.46-.05-.69-.15-7.44-3.55-10.61-12.49-7.06-19.93.38-.8,1.33-1.13,2.13-.75.8.38,1.13,1.33.75,2.13-2.79,5.85-.3,12.88,5.56,15.67.8.38,1.13,1.33.75,2.13-.27.57-.85.91-1.44.91Z"/>
</svg>