<?xml version="1.0" encoding="UTF-8"?>
<svg id="Layer_1" data-name="Layer 1" xmlns="http://www.w3.org/2000/svg" viewBox="0 0 56.69 56.69">
  <defs>
    <style>
      .cls-1 {
        fill: #fff;
      }
    </style>
  </defs>
  <path class="cls-1" d="M2.13,37.57c-.56,0-1.11-.22-1.53-.65-.82-.85-.79-2.19.05-3.01L23.94,11.43c.85-.81,2.19-.79,3.01.05.82.85.79,2.19-.05,3.01L3.61,36.97c-.41.4-.95.6-1.48.6Z"/>
  <g>
    <path class="cls-1" d="M10.68,46.12c-.54,0-1.09-.21-1.51-.62-.83-.83-.83-2.18,0-3.01l4.14-4.14c.83-.83,2.18-.83,3.01,0,.83.83.83,2.18,0,3.01l-4.14,4.14c-.42.42-.96.62-1.51.62Z"/>
    <path class="cls-1" d="M19.46,37.33c-.54,0-1.09-.21-1.51-.62-.83-.83-.83-2.18,0-3.01l4.65-4.65c.83-.83,2.18-.83,3.01,0s.83,2.18,0,3.01l-4.65,4.65c-.42.42-.96.62-1.51.62Z"/>
    <path class="cls-1" d="M28.75,28.04c-.54,0-1.09-.21-1.51-.62-.83-.83-.83-2.18,0-3.01l4.14-4.14c.83-.83,2.18-.83,3.01,0s.83,2.18,0,3.01l-4.14,4.14c-.42.42-.96.62-1.51.62Z"/>
  </g>
  <path class="cls-1" d="M19.13,54.57c-.54,0-1.09-.21-1.51-.62-.83-.83-.83-2.18,0-3.01l22.88-22.88c.83-.83,2.18-.83,3.01,0s.83,2.18,0,3.01l-22.88,22.88c-.42.42-.96.62-1.51.62Z"/>
  <circle class="cls-1" cx="51.56" cy="8.81" r="5.13"/>
  <path class="cls-1" d="M51.56,15.01c-.55,0-1.09-.08-1.6-.22v30.16c0,.88.72,1.6,1.6,1.6s1.6-.72,1.6-1.6V14.79c-.51.14-1.04.22-1.6.22Z"/>
  <path class="cls-1" d="M47.55,18.91c-.23,0-.46-.05-.69-.15-2.53-1.21-4.44-3.33-5.38-5.97-.94-2.64-.79-5.49.42-8.03.38-.8,1.34-1.13,2.13-.75.8.38,1.13,1.33.75,2.13-.84,1.76-.94,3.74-.29,5.58s1.98,3.32,3.74,4.15c.8.38,1.13,1.33.75,2.13-.27.57-.85.91-1.44.91Z"/>
  <path class="cls-1" d="M44.27,23.11c-.23,0-.46-.05-.69-.15-7.44-3.55-10.61-12.49-7.06-19.93.38-.8,1.33-1.13,2.13-.75.8.38,1.13,1.33.75,2.13-2.79,5.85-.3,12.88,5.56,15.67.8.38,1.13,1.33.75,2.13-.27.57-.85.91-1.44.91Z"/>
</svg>